<svg xmlns="http://www.w3.org/2000/svg" width="155" height="151.041" viewBox="0 0 155 151.041"><defs><style>.a{fill:#61aff6;}.b{fill:#55a2f0;}.c{fill:#e6e6e6;}.d{fill:#ffb125;}.e{fill:#f2f2f2;}.f{fill:#ff6d3a;}.g{fill:#f33939;}.h{fill:#775146;}</style></defs><g transform="translate(0 -6.538)"><path class="a" d="M150.542,148.475H4.458A4.458,4.458,0,0,1,0,144.018V11A4.458,4.458,0,0,1,4.458,6.538H150.542A4.458,4.458,0,0,1,155,11V144.018A4.458,4.458,0,0,1,150.542,148.475Z"/><path class="b" d="M150.542,6.538h-9.468V139.4a4.458,4.458,0,0,1-4.458,4.458H0v.159a4.458,4.458,0,0,0,4.458,4.458H150.542A4.458,4.458,0,0,0,155,144.018V11A4.458,4.458,0,0,0,150.542,6.538Z"/><path class="c" d="M41.767,305.809h0a3.989,3.989,0,0,0,3.989,3.989h64.337a3.989,3.989,0,0,0,3.989-3.989h0a3.989,3.989,0,0,0-3.989-3.989H45.756A3.989,3.989,0,0,0,41.767,305.809Z" transform="translate(-29.123 -205.89)"/><g transform="translate(101.08 95.93)"><path class="d" d="M347.7,317.776H336.035a2.144,2.144,0,0,1-2.144-2.144V303.963a2.144,2.144,0,0,1,2.144-2.144H347.7a2.144,2.144,0,0,1,2.144,2.144v11.669A2.144,2.144,0,0,1,347.7,317.776Z" transform="translate(-333.891 -301.819)"/><path class="d" d="M431.336,317.776H419.667a2.144,2.144,0,0,1-2.144-2.144V303.963a2.144,2.144,0,0,1,2.144-2.144h11.669a2.144,2.144,0,0,1,2.144,2.144v11.669A2.144,2.144,0,0,1,431.336,317.776Z" transform="translate(-392.205 -301.819)"/><path class="d" d="M347.7,399.638H336.035a2.144,2.144,0,0,1-2.144-2.144V385.825a2.144,2.144,0,0,1,2.144-2.144H347.7a2.144,2.144,0,0,1,2.144,2.144v11.669A2.144,2.144,0,0,1,347.7,399.638Z" transform="translate(-333.891 -358.899)"/><path class="d" d="M431.336,399.638H419.667a2.144,2.144,0,0,1-2.144-2.144V385.825a2.144,2.144,0,0,1,2.144-2.144h11.669a2.144,2.144,0,0,1,2.144,2.144v11.669A2.144,2.144,0,0,1,431.336,399.638Z" transform="translate(-392.205 -358.899)"/></g><path class="e" d="M167.212,108.655H46.034a4.267,4.267,0,0,1-4.267-4.267V53.219a4.267,4.267,0,0,1,4.267-4.267H167.212a4.267,4.267,0,0,1,4.267,4.267v51.169A4.267,4.267,0,0,1,167.212,108.655Z" transform="translate(-29.123 -29.574)"/><g transform="translate(17.719 35.882)"><path class="f" d="M118.366,127.58a1.853,1.853,0,0,1,.071-.394l6.664-21.855c.394-1.254,2.006-1.863,3.654-1.863s3.26.609,3.654,1.863l6.7,21.855a1.836,1.836,0,0,1,.072.394c0,1.326-2.042,2.293-3.583,2.293-.9,0-1.612-.287-1.827-1.039l-1.218-4.478h-7.56l-1.218,4.478c-.215.752-.932,1.039-1.827,1.039C120.408,129.873,118.366,128.906,118.366,127.58Zm13.005-7.524-2.616-9.6-2.616,9.6Z" transform="translate(-100.251 -103.468)"/><path class="f" d="M233.989,104.178c1.182,0,1.684,1.29,1.684,2.472,0,1.361-.609,2.544-1.684,2.544h-4.944v19.455c0,1.146-1.4,1.72-2.794,1.72s-2.795-.573-2.795-1.72V109.194h-4.945c-1.075,0-1.684-1.182-1.684-2.544,0-1.182.5-2.472,1.684-2.472Z" transform="translate(-168.906 -103.963)"/><path class="f" d="M334.765,121.089a2.053,2.053,0,0,1-1.863,1.039,1.837,1.837,0,0,1-1.756-1.039l-3.4-6.234v13.793c0,1.146-1.4,1.72-2.794,1.72s-2.795-.573-2.795-1.72V106.973a2.586,2.586,0,0,1,2.795-2.795c2.006,0,2.866.215,4.335,2.795l3.69,6.449,3.69-6.449c1.469-2.58,2.329-2.795,4.335-2.795a2.57,2.57,0,0,1,2.794,2.795v21.676c0,1.146-1.4,1.72-2.794,1.72s-2.795-.573-2.795-1.72V115.213Z" transform="translate(-242.346 -103.963)"/><path class="f" d="M118.9,363.469H61.71a2.957,2.957,0,0,1-3.164-3.171L64.8,301.819h51l6.258,58.479A2.957,2.957,0,0,1,118.9,363.469Z" transform="translate(-58.529 -241.771)"/></g><path class="g" d="M221.68,360.3l-6.258-58.479H201.394l6.258,58.479a2.957,2.957,0,0,1-3.164,3.171h14.027A2.956,2.956,0,0,0,221.68,360.3Z" transform="translate(-140.425 -205.889)"/><path class="h" d="M180.692,363.469h11.871l-4.886-61.65h-10.12Z" transform="translate(-123.805 -205.889)"/><path class="c" d="M167.212,48.951h-9.823c0,.01,0,.019,0,.028v51.169a4.267,4.267,0,0,1-4.267,4.267H41.769a4.266,4.266,0,0,0,4.266,4.238H167.212a4.267,4.267,0,0,0,4.267-4.267V53.218A4.267,4.267,0,0,0,167.212,48.951Z" transform="translate(-29.124 -29.573)"/></g></svg>