<svg xmlns="http://www.w3.org/2000/svg" width="184.865" height="184.819" viewBox="0 0 184.865 184.819"><defs><style>.a{fill:#88b337;}.b{fill:#6b962a;}.c{fill:#fff;}.d{fill:#fdb62f;}.e{fill:#fec9a3;}.f{fill:#f7bb8f;}.g{fill:#4398d1;}.h{fill:#3e8cc7;}.i{fill:#d9d9d9;}</style></defs><g transform="translate(0 -0.063)"><g transform="translate(31.865 0.063)"><path class="a" d="M209.342,159.572a7.491,7.491,0,0,0-1.115-3.951l-7.106-11.44a12.527,12.527,0,0,1-1.338-5.672V103.266a41.424,41.424,0,0,0-41.425-41.425H139.238a41.424,41.424,0,0,0-41.425,41.425v35.243a12.517,12.517,0,0,1-1.338,5.672l-7.106,11.44a7.491,7.491,0,0,0-1.115,3.951h0A7.452,7.452,0,0,0,95.677,167H201.917A7.453,7.453,0,0,0,209.342,159.572Z" transform="translate(-88.253 -39.535)"/><path class="a" d="M220.387,22.369,236.32.063H185.335l15.933,22.306v6.373h19.119Z" transform="translate(-150.282 -0.063)"/></g><path class="b" d="M272.342,183.815l-7.106-11.44A12.528,12.528,0,0,1,263.9,166.7V131.46a41.414,41.414,0,0,0-8.7-25.492c-8.508,46.874-38.461,73.9-66.6,89.223h77.433a7.458,7.458,0,0,0,6.373-11.376Z" transform="translate(-120.504 -67.667)"/><path class="c" d="M243.613,160.389V158.35a10.738,10.738,0,0,0-10.707-10.707h-2.039V141.27h-6.373v6.373h-2.039a10.706,10.706,0,0,0-3.76,20.744l5.8,2.167v12.141h-2.039a4.334,4.334,0,0,1-4.334-4.334h0v-2.039h-6.373v2.039a10.739,10.739,0,0,0,10.707,10.707h10.452a10.706,10.706,0,0,0,3.76-20.744l-5.8-2.167V154.016h2.039a4.334,4.334,0,0,1,4.334,4.334h0v2.039Zm-9.177,13.893a4.4,4.4,0,0,1,2.8,4.079,4.334,4.334,0,0,1-4.334,4.334h-2.039v-9.751Zm-9.942-10.516-3.569-1.338a4.4,4.4,0,0,1-2.8-4.079,4.334,4.334,0,0,1,4.334-4.334h2.039Z" transform="translate(-135.271 -90.222)"/><g transform="translate(0 6.436)"><path class="d" d="M409.891,43.205h0a15.486,15.486,0,0,0-12.746-12.746h0a15.486,15.486,0,0,0,12.746-12.746h0a15.486,15.486,0,0,0,12.746,12.746h0A15.486,15.486,0,0,0,409.891,43.205Z" transform="translate(-253.751 -17.713)"/><path class="d" d="M12.746,219.715h0A15.485,15.485,0,0,0,0,206.969H0a15.486,15.486,0,0,0,12.746-12.746h0a15.486,15.486,0,0,0,12.746,12.746h0A15.485,15.485,0,0,0,12.746,219.715Z" transform="translate(0 -130.492)"/></g><path class="e" d="M211.643,280.408a9.56,9.56,0,0,0-12.746-3.537l-45.217,19.31a6.394,6.394,0,0,1-2.517.51H95.112a6.373,6.373,0,0,1,0-12.746H120.6a19.118,19.118,0,0,0,19.119-19.119H86.7a28.973,28.973,0,0,0-22.592,10.866l-19.98,24.186,22.5,41.234L153.2,320.3a45.981,45.981,0,0,0,10.77-3.951L208.585,293.5A9.556,9.556,0,0,0,211.643,280.408Z" transform="translate(-28.194 -169.167)"/><path class="f" d="M86.578,397.23l7.17,13.129,86.578-20.808A45.983,45.983,0,0,0,191.1,385.6l24.122-12.4C175.132,385.471,121.917,393.119,86.578,397.23Z" transform="translate(-55.318 -238.413)"/><path class="g" d="M0,336.164v57.358H41.425l9.559-9.559L12.746,326.6Z" transform="translate(0 -208.64)"/><path class="h" d="M0,476.414H41.425l9.559-9.56-7.01-10.516A225.362,225.362,0,0,1,0,469.436Z" transform="translate(0 -291.532)"/><circle class="i" cx="6.373" cy="6.373" r="6.373" transform="translate(22.306 162.586)"/></g></svg>