<svg xmlns="http://www.w3.org/2000/svg" width="166.798" height="166.797" viewBox="0 0 166.798 166.797"><defs><style>.a{fill:#ffb782;}.b{fill:#de4c3c;}.c{fill:#7a4930;}.d{fill:#4398d1;}.e{fill:#3e8cc7;}.f{fill:#5eb3d1;}.g{fill:#88b337;}.h{fill:#6b962a;}.i{fill:#fdb62f;}.j{fill:#fd7b2f;}.k{fill:#f2a46f;}</style></defs><g transform="translate(0 -0.301)"><path class="a" d="M479.189,91.684,449.105,61.543V182.327h40.261v-66.17A34.515,34.515,0,0,0,479.189,91.684Zm0,0" transform="translate(-322.569 -43.987)"/><path class="b" d="M23.514,116.337.771,57.3a11.5,11.5,0,0,1,6.6-14.868L114.717,1.08a11.5,11.5,0,0,1,14.867,6.6l22.743,59.04a11.5,11.5,0,0,1-6.6,14.868L38.384,122.937A11.507,11.507,0,0,1,23.514,116.337Zm0,0" transform="translate(0 -0.005)"/><path class="c" d="M160.9,101.961,32.2,151.851l8.57,22.247,128.715-49.867Zm0,0" transform="translate(-23.124 -73.017)"/><path class="d" d="M0,75.072V11.8A11.5,11.5,0,0,1,11.507.3H126.54a11.5,11.5,0,0,1,11.5,11.5V75.072a11.5,11.5,0,0,1-11.5,11.5H11.507A11.5,11.5,0,0,1,0,75.072Zm0,0" transform="translate(-0.003)"/><path class="e" d="M198.016.3H185.794L99.52,86.576h98.5a11.5,11.5,0,0,0,11.5-11.5V11.8A11.5,11.5,0,0,0,198.016.3Zm0,0" transform="translate(-71.48)"/><path class="f" d="M40.832,163.609h11.5v5.752h-11.5Zm0,0" transform="translate(-29.328 -117.296)"/><path class="f" d="M40.832,224.852h11.5V230.6h-11.5Zm0,0" transform="translate(-29.328 -161.283)"/><path class="f" d="M224.555,224.852h11.5V230.6h-11.5Zm0,0" transform="translate(-161.286 -161.283)"/><path class="f" d="M102.074,163.609h11.5v5.752h-11.5Zm0,0" transform="translate(-73.315 -117.296)"/><path class="f" d="M163.313,163.609h11.5v5.752h-11.5Zm0,0" transform="translate(-117.299 -117.296)"/><path class="f" d="M224.555,163.609h11.5v5.752h-11.5Zm0,0" transform="translate(-161.286 -117.296)"/><path class="f" d="M418.484,41.129h5.752v8.628h-5.752Zm0,0" transform="translate(-300.575 -29.325)"/><path class="f" d="M377.656,41.129h5.752v8.628h-5.752Zm0,0" transform="translate(-271.251 -29.325)"/><path class="f" d="M336.828,41.129h5.752v8.628h-5.752Zm0,0" transform="translate(-241.926 -29.325)"/><path class="f" d="M296,41.129h5.751v8.628H296Zm0,0" transform="translate(-212.604 -29.325)"/><path class="g" d="M408.277,490.23h51.764v28.758H408.277Zm0,0" transform="translate(-293.244 -351.891)"/><path class="a" d="M324.107,175.419a12.467,12.467,0,0,0-18,17.241l23.567,25.71a38.784,38.784,0,0,0,.785,39.792l2.091,3.345h37.385V221.246Zm0,0" transform="translate(-217.515 -123.167)"/><path class="h" d="M438.9,520.852h5.752V526.6H438.9Zm0,0" transform="translate(-315.238 -373.884)"/><path class="i" d="M40.832,59.534v-13.8a4.6,4.6,0,0,1,4.6-4.6h13.8a4.6,4.6,0,0,1,4.6,4.6v13.8a4.6,4.6,0,0,1-4.6,4.6h-13.8A4.6,4.6,0,0,1,40.832,59.534Zm0,0" transform="translate(-29.328 -29.325)"/><path class="j" d="M40.832,71.75H49.46V77.5H40.832Zm0,0" transform="translate(-29.328 -51.318)"/><path class="j" d="M91.867,71.75h8.626V77.5H91.867Zm0,0" transform="translate(-65.984 -51.318)"/><path class="k" d="M494.193,303.439a2.87,2.87,0,0,1-2.033-.843l-11.5-11.5a2.876,2.876,0,0,1,4.067-4.067l11.5,11.5a2.876,2.876,0,0,1-2.034,4.91Zm0,0" transform="translate(-344.651 -205.36)"/></g></svg>